<svg width="208" height="58" viewBox="0 0 208 58" fill="none" xmlns="http://www.w3.org/2000/svg">
<g filter="url(#filter0_d_0_24)">
<rect x="4" width="200" height="50" rx="4" fill="#2196F3"/>
</g>
<path d="M42.9441 21.7578C42.9441 21.3255 42.7748 20.987 42.4362 20.7422C42.0977 20.4922 41.6498 20.3672 41.0925 20.3672C40.5925 20.3672 40.1758 20.4922 39.8425 20.7422C39.5144 20.987 39.3503 21.3073 39.3503 21.7031H37.0066C37.0066 21.0885 37.1784 20.5365 37.5222 20.0469C37.8711 19.5521 38.3633 19.1667 38.9987 18.8906C39.6394 18.6146 40.3373 18.4766 41.0925 18.4766C42.405 18.4766 43.4336 18.7578 44.1784 19.3203C44.9232 19.8828 45.2956 20.6797 45.2956 21.7109C45.2956 22.2161 45.142 22.6849 44.8347 23.1172C44.5326 23.5495 44.1003 23.8958 43.5378 24.1562C44.1628 24.375 44.642 24.7083 44.9753 25.1562C45.3086 25.599 45.4753 26.151 45.4753 26.8125C45.4753 27.8333 45.0743 28.6458 44.2722 29.25C43.4753 29.849 42.4154 30.1484 41.0925 30.1484C40.2644 30.1484 39.5196 30.0078 38.8581 29.7266C38.1967 29.4401 37.6941 29.0521 37.3503 28.5625C37.0118 28.0677 36.8425 27.4948 36.8425 26.8438H39.2019C39.2019 27.25 39.379 27.5911 39.7331 27.8672C40.0873 28.138 40.5404 28.2734 41.0925 28.2734C41.7175 28.2734 42.2097 28.1328 42.5691 27.8516C42.9336 27.5703 43.1159 27.2135 43.1159 26.7812C43.1159 26.1875 42.9545 25.763 42.6316 25.5078C42.3086 25.2474 41.8373 25.1172 41.2175 25.1172H39.8191V23.2812H41.2644C42.3842 23.2656 42.9441 22.7578 42.9441 21.7578ZM52.9197 30C52.8155 29.7969 52.74 29.5443 52.6931 29.2422C52.1462 29.8516 51.4353 30.1562 50.5603 30.1562C49.7322 30.1562 49.0447 29.9167 48.4978 29.4375C47.9561 28.9583 47.6853 28.3542 47.6853 27.625C47.6853 26.7292 48.016 26.0417 48.6775 25.5625C49.3442 25.0833 50.3051 24.8411 51.5603 24.8359H52.5994V24.3516C52.5994 23.9609 52.4978 23.6484 52.2947 23.4141C52.0968 23.1797 51.7817 23.0625 51.3494 23.0625C50.9692 23.0625 50.6697 23.1536 50.4509 23.3359C50.2374 23.5182 50.1306 23.7682 50.1306 24.0859H47.8728C47.8728 23.5964 48.0239 23.1432 48.3259 22.7266C48.628 22.3099 49.0551 21.9844 49.6072 21.75C50.1593 21.5104 50.7791 21.3906 51.4666 21.3906C52.5082 21.3906 53.3337 21.6536 53.9431 22.1797C54.5577 22.7005 54.865 23.4349 54.865 24.3828V28.0469C54.8702 28.849 54.9822 29.4557 55.2009 29.8672V30H52.9197ZM51.0525 28.4297C51.3858 28.4297 51.6931 28.3568 51.9744 28.2109C52.2556 28.0599 52.464 27.8594 52.5994 27.6094V26.1562H51.7556C50.6254 26.1562 50.0239 26.5469 49.9509 27.3281L49.9431 27.4609C49.9431 27.7422 50.0421 27.974 50.24 28.1562C50.4379 28.3385 50.7087 28.4297 51.0525 28.4297ZM60.8719 26.8828H59.9656V30H57.7078V21.5469H59.9656V24.7266H60.7703L62.6141 21.5469H65.4656L62.7 25.5703L65.7234 30H62.7156L60.8719 26.8828ZM72.4334 30C72.3293 29.7969 72.2537 29.5443 72.2069 29.2422C71.66 29.8516 70.9491 30.1562 70.0741 30.1562C69.2459 30.1562 68.5584 29.9167 68.0116 29.4375C67.4699 28.9583 67.1991 28.3542 67.1991 27.625C67.1991 26.7292 67.5298 26.0417 68.1912 25.5625C68.8579 25.0833 69.8189 24.8411 71.0741 24.8359H72.1131V24.3516C72.1131 23.9609 72.0116 23.6484 71.8084 23.4141C71.6105 23.1797 71.2954 23.0625 70.8631 23.0625C70.4829 23.0625 70.1834 23.1536 69.9647 23.3359C69.7511 23.5182 69.6444 23.7682 69.6444 24.0859H67.3866C67.3866 23.5964 67.5376 23.1432 67.8397 22.7266C68.1418 22.3099 68.5689 21.9844 69.1209 21.75C69.673 21.5104 70.2928 21.3906 70.9803 21.3906C72.022 21.3906 72.8475 21.6536 73.4569 22.1797C74.0715 22.7005 74.3787 23.4349 74.3787 24.3828V28.0469C74.384 28.849 74.4959 29.4557 74.7147 29.8672V30H72.4334ZM70.5662 28.4297C70.8996 28.4297 71.2069 28.3568 71.4881 28.2109C71.7694 28.0599 71.9777 27.8594 72.1131 27.6094V26.1562H71.2694C70.1392 26.1562 69.5376 26.5469 69.4647 27.3281L69.4569 27.4609C69.4569 27.7422 69.5558 27.974 69.7537 28.1562C69.9517 28.3385 70.2225 28.4297 70.5662 28.4297ZM81.5106 24.0391C81.5106 23.7422 81.4117 23.513 81.2137 23.3516C81.021 23.1849 80.745 23.1016 80.3856 23.1016C80.0158 23.1016 79.7137 23.1797 79.4794 23.3359C79.2502 23.487 79.1356 23.7031 79.1356 23.9844H76.8778C76.8778 23.2188 77.1955 22.5964 77.8309 22.1172C78.4664 21.638 79.2789 21.3984 80.2684 21.3984C81.357 21.3984 82.2111 21.612 82.8309 22.0391C83.4559 22.4661 83.7684 23.0729 83.7684 23.8594C83.7684 24.2344 83.6539 24.5807 83.4247 24.8984C83.2007 25.2109 82.883 25.4609 82.4716 25.6484C83.4351 25.987 83.9169 26.6406 83.9169 27.6094C83.9169 28.3854 83.5835 29.0052 82.9169 29.4688C82.2554 29.9271 81.3726 30.1562 80.2684 30.1562C79.2424 30.1562 78.3986 29.9167 77.7372 29.4375C77.0757 28.9583 76.745 28.3125 76.745 27.5H79.0028C79.0028 27.7865 79.1304 28.0182 79.3856 28.1953C79.6408 28.3724 79.9742 28.4609 80.3856 28.4609C80.7867 28.4609 81.0992 28.3672 81.3231 28.1797C81.5471 27.9922 81.6591 27.7474 81.6591 27.4453C81.6591 27.0755 81.5523 26.8125 81.3387 26.6562C81.1252 26.4948 80.8049 26.4141 80.3778 26.4141H79.1512V24.9453H80.4559C81.1591 24.9245 81.5106 24.6224 81.5106 24.0391ZM91.1503 30C91.0461 29.7969 90.9706 29.5443 90.9237 29.2422C90.3769 29.8516 89.6659 30.1562 88.7909 30.1562C87.9628 30.1562 87.2753 29.9167 86.7284 29.4375C86.1868 28.9583 85.9159 28.3542 85.9159 27.625C85.9159 26.7292 86.2467 26.0417 86.9081 25.5625C87.5748 25.0833 88.5357 24.8411 89.7909 24.8359H90.83V24.3516C90.83 23.9609 90.7284 23.6484 90.5253 23.4141C90.3274 23.1797 90.0123 23.0625 89.58 23.0625C89.1998 23.0625 88.9003 23.1536 88.6816 23.3359C88.468 23.5182 88.3612 23.7682 88.3612 24.0859H86.1034C86.1034 23.5964 86.2545 23.1432 86.5566 22.7266C86.8586 22.3099 87.2857 21.9844 87.8378 21.75C88.3899 21.5104 89.0097 21.3906 89.6972 21.3906C90.7389 21.3906 91.5644 21.6536 92.1737 22.1797C92.7883 22.7005 93.0956 23.4349 93.0956 24.3828V28.0469C93.1008 28.849 93.2128 29.4557 93.4316 29.8672V30H91.1503ZM89.2831 28.4297C89.6165 28.4297 89.9237 28.3568 90.205 28.2109C90.4862 28.0599 90.6946 27.8594 90.83 27.6094V26.1562H89.9862C88.856 26.1562 88.2545 26.5469 88.1816 27.3281L88.1737 27.4609C88.1737 27.7422 88.2727 27.974 88.4706 28.1562C88.6685 28.3385 88.9394 28.4297 89.2831 28.4297ZM102.681 23.3594H99.9697V30H97.7041V23.3594H95.04V21.5469H102.681V23.3594ZM107.195 24.0234H108.812C109.542 24.0234 110.182 24.1458 110.734 24.3906C111.286 24.6354 111.708 24.987 112 25.4453C112.297 25.8984 112.445 26.4271 112.445 27.0312C112.445 27.9219 112.115 28.6406 111.453 29.1875C110.797 29.7292 109.901 30 108.766 30H104.93V21.5469H107.195V24.0234ZM107.195 25.8359V28.1953H108.797C109.245 28.1953 109.589 28.0911 109.828 27.8828C110.068 27.6745 110.188 27.3906 110.188 27.0312C110.188 26.6667 110.07 26.3776 109.836 26.1641C109.602 25.9453 109.255 25.8359 108.797 25.8359H107.195ZM122.779 26.8047L124.342 21.5469H126.764L123.365 31.3125L123.178 31.7578C122.673 32.862 121.839 33.4141 120.678 33.4141C120.35 33.4141 120.016 33.3646 119.678 33.2656V31.5547L120.022 31.5625C120.449 31.5625 120.766 31.4974 120.975 31.3672C121.188 31.237 121.355 31.0208 121.475 30.7188L121.74 30.0234L118.779 21.5469H121.209L122.779 26.8047ZM132.021 28.3359C132.437 28.3359 132.776 28.2214 133.036 27.9922C133.297 27.763 133.432 27.4583 133.442 27.0781H135.56C135.554 27.651 135.398 28.1771 135.091 28.6562C134.784 29.1302 134.362 29.5 133.825 29.7656C133.294 30.026 132.706 30.1562 132.06 30.1562C130.851 30.1562 129.898 29.7734 129.2 29.0078C128.502 28.237 128.153 27.1745 128.153 25.8203V25.6719C128.153 24.3698 128.5 23.3307 129.192 22.5547C129.885 21.7786 130.836 21.3906 132.044 21.3906C133.101 21.3906 133.948 21.6927 134.583 22.2969C135.224 22.8958 135.549 23.6953 135.56 24.6953H133.442C133.432 24.2578 133.297 23.9036 133.036 23.6328C132.776 23.3568 132.432 23.2188 132.005 23.2188C131.479 23.2188 131.081 23.4115 130.81 23.7969C130.544 24.1771 130.411 24.7969 130.411 25.6562V25.8906C130.411 26.7604 130.544 27.3854 130.81 27.7656C131.075 28.1458 131.479 28.3359 132.021 28.3359ZM145.16 21.5469V30H142.902V23.375H140.91L140.77 25.9844C140.681 27.375 140.408 28.388 139.949 29.0234C139.491 29.6589 138.809 29.9844 137.902 30H137.137L137.113 28.1641L137.395 28.1406C137.801 28.1094 138.098 27.8698 138.285 27.4219C138.473 26.974 138.59 26.2109 138.637 25.1328L138.793 21.5469H145.16ZM151.019 26.8047L152.581 21.5469H155.003L151.605 31.3125L151.417 31.7578C150.912 32.862 150.079 33.4141 148.917 33.4141C148.589 33.4141 148.256 33.3646 147.917 33.2656V31.5547L148.261 31.5625C148.688 31.5625 149.006 31.4974 149.214 31.3672C149.428 31.237 149.594 31.0208 149.714 30.7188L149.98 30.0234L147.019 21.5469H149.448L151.019 26.8047ZM162.612 23.375H159.112V30H156.854V21.5469H162.612V23.375ZM167.673 26.8047L169.236 21.5469H171.658L168.259 31.3125L168.072 31.7578C167.566 32.862 166.733 33.4141 165.572 33.4141C165.243 33.4141 164.91 33.3646 164.572 33.2656V31.5547L164.915 31.5625C165.342 31.5625 165.66 31.4974 165.868 31.3672C166.082 31.237 166.249 31.0208 166.368 30.7188L166.634 30.0234L163.673 21.5469H166.103L167.673 26.8047Z" fill="white"/>
<defs>
<filter id="filter0_d_0_24" x="0" y="0" width="208" height="58" filterUnits="userSpaceOnUse" color-interpolation-filters="sRGB">
<feFlood flood-opacity="0" result="BackgroundImageFix"/>
<feColorMatrix in="SourceAlpha" type="matrix" values="0 0 0 0 0 0 0 0 0 0 0 0 0 0 0 0 0 0 127 0" result="hardAlpha"/>
<feOffset dy="4"/>
<feGaussianBlur stdDeviation="2"/>
<feColorMatrix type="matrix" values="0 0 0 0 0 0 0 0 0 0 0 0 0 0 0 0 0 0 0.15 0"/>
<feBlend mode="normal" in2="BackgroundImageFix" result="effect1_dropShadow_0_24"/>
<feBlend mode="normal" in="SourceGraphic" in2="effect1_dropShadow_0_24" result="shape"/>
</filter>
</defs>
</svg>
